<?xml version="1.0" encoding="UTF-8"?>
<svg id="Layer_2" data-name="Layer 2" xmlns="http://www.w3.org/2000/svg" viewBox="0 0 639.55 513.79">
  <defs>
    <style>
      .cls-1 {
        fill: #aada00;
      }

      .cls-2 {
        fill: #aada00;
      }

      .cls-3 {
        fill: #aada00;
      }
    </style>
  </defs>
  <g id="Layer_1-2" data-name="Layer 1">
    <path class="cls-2" d="M45.33,354.83v.84c0,6.35,5.15,11.51,11.51,11.51h82.62c8.01,0,14.92,6.15,15.27,14.15.37,8.49-6.4,15.49-14.81,15.49H12.71c-7.02,0-12.71,5.69-12.71,12.71h0c0,6.3,5.11,11.41,11.41,11.41h361.13c48.41,0,89.1-33.05,100.74-77.82,0-.03-.02-.06-.05-.06H57.1c-6.5,0-11.77,5.27-11.77,11.77Z"/>
    <g>
      <g>
        <rect class="cls-1" x="338.62" y="271.06" width="59.74" height="59.74" rx="5.78" ry="5.78"/>
        <rect class="cls-1" x="269.4" y="271.06" width="59.74" height="59.74" rx="5.78" ry="5.78"/>
        <rect class="cls-1" x="407.84" y="271.06" width="59.74" height="59.74" rx="5.78" ry="5.78"/>
        <rect class="cls-1" x="200.18" y="272.03" width="59.74" height="59.74" rx="5.78" ry="5.78"/>
        <rect class="cls-1" x="130.96" y="272.03" width="59.74" height="59.74" rx="5.78" ry="5.78"/>
      </g>
      <g>
        <rect class="cls-1" x="338.62" y="198.09" width="59.74" height="59.74" rx="5.78" ry="5.78"/>
        <rect class="cls-1" x="269.4" y="198.09" width="59.74" height="59.74" rx="5.78" ry="5.78"/>
        <rect class="cls-1" x="269.4" y="125.12" width="59.74" height="59.74" rx="5.78" ry="5.78"/>
        <rect class="cls-1" x="200.18" y="199.06" width="59.74" height="59.74" rx="5.78" ry="5.78"/>
      </g>
    </g>
    <path class="cls-3" d="M639.55,216C639.55,96.71,542.84,0,423.55,0H167.23c-9.66,0-17.49,7.83-17.49,17.49v157.76c0,2.96,2.4,5.37,5.37,5.37h26.15c.15,0,.29-.01.43-.02.07,0,.14.02.22.02h26.15c3.58,0,6.49-2.9,6.49-6.49v-29.34c.04-.3.07-.61.07-.92v-72.26c.25-1.04,1.18-1.81,2.29-1.81h190.72c94.15,0,170.47,76.32,170.47,170.47v31.5c0,97.07-78.69,175.76-175.76,175.76H103.54c-3.01,0-5.45,2.44-5.45,5.45v24.51c0,1.07.28,2.08.78,2.96-.49.82-.78,1.77-.78,2.79v24.51c0,3.33,2.7,6.04,6.04,6.04h323.23c117.15,0,212.12-94.97,212.12-212.12v-24.69c.05-1.85.07-3.71.07-5.57v-55.41Z"/>
  </g>
</svg>