<?xml version="1.0" encoding="UTF-8"?>
<svg id="Layer_2" data-name="Layer 2" xmlns="http://www.w3.org/2000/svg" viewBox="0 0 3377 513.79">
  <defs>
    <style>
      .cls-1 {
        fill: #1fb788;
      }

      .cls-2 {
        fill: #00a79d;
      }

      .cls-3 {
        fill: #00b597;
      }
    </style>
  </defs>
  <g id="Layer_1-2" data-name="Layer 1">
    <path class="cls-2" d="M45.33,354.83v.84c0,6.35,5.15,11.51,11.51,11.51h82.62c8.01,0,14.92,6.15,15.27,14.15.37,8.49-6.4,15.49-14.81,15.49H12.71c-7.02,0-12.71,5.69-12.71,12.71h0c0,6.3,5.11,11.41,11.41,11.41h361.13c48.41,0,89.1-33.05,100.74-77.82,0-.03-.02-.06-.05-.06H57.1c-6.5,0-11.77,5.27-11.77,11.77Z"/>
    <g>
      <g>
        <rect class="cls-1" x="338.62" y="271.06" width="59.74" height="59.74" rx="5.78" ry="5.78"/>
        <rect class="cls-1" x="269.4" y="271.06" width="59.74" height="59.74" rx="5.78" ry="5.78"/>
        <rect class="cls-1" x="407.84" y="271.06" width="59.74" height="59.74" rx="5.78" ry="5.78"/>
        <rect class="cls-1" x="200.18" y="272.03" width="59.74" height="59.74" rx="5.78" ry="5.78"/>
        <rect class="cls-1" x="130.96" y="272.03" width="59.74" height="59.74" rx="5.78" ry="5.78"/>
      </g>
      <g>
        <rect class="cls-1" x="338.62" y="198.09" width="59.74" height="59.74" rx="5.78" ry="5.78"/>
        <rect class="cls-1" x="269.4" y="198.09" width="59.74" height="59.74" rx="5.78" ry="5.78"/>
        <rect class="cls-1" x="269.4" y="125.12" width="59.74" height="59.74" rx="5.78" ry="5.78"/>
        <rect class="cls-1" x="200.18" y="199.06" width="59.74" height="59.74" rx="5.78" ry="5.78"/>
      </g>
    </g>
    <g>
      <rect class="cls-3" x="2299.47" y="93.02" width="91.08" height="61.94"/>
      <g>
        <polygon class="cls-3" points="1431.49 340.86 1568.59 513.38 1479.24 513.79 1375.27 376.83 1373.87 513.66 1295.96 513.55 1295.96 93.04 1374 93.02 1374 304.56 1379.81 304.21 1475.83 194.72 1556.55 194.92 1431.49 340.86"/>
        <path class="cls-3" d="M951.62,470.56c-10.81,31.27-38.7,43.13-71.54,43.1l-115.92-.11c-32.57-.03-59.86-13.89-69.24-45.33-4.9-16.43-7.11-33.6-7.12-51.23l-.02-125.85c0-41.5,9.6-83.71,51.25-93.13l31.16-3.53,121.65.79c28.93.19,52.24,18.58,60.53,45.31,4.65,14.99,7.48,30.45,7.48,46.55v133.86c-.02,17.1-2.85,34-8.24,49.57ZM855.91,464.03c20.35-.12,25.48-27.47,25.48-50.16v-119.62c0-25.38-5.24-49.69-29.2-49.59l-59.94.25c-19.72.08-26.24,23.95-26.24,46.15l.02,126.01c0,23.97,6.68,47.43,28.82,47.31l61.06-.35Z"/>
        <path class="cls-3" d="M2702.19,513.67l-.11-220.38-2.52-27.73c-3.57-14.26-14.06-20.99-28.27-20.95l-75.85.18v268.79s-77.04.11-77.04.11l-.02-319.2,182.75.03c13.05,0,25.13,2.46,37.29,5.45,33.27,13.19,37.46,45.66,39.85,80.57l.02,233.11-76.1.02Z"/>
        <path class="cls-3" d="M2928.09,464.26l127.96.16v49.27s-156.73-.11-156.73-.11c-32.98-.02-59.51-13.84-69.24-45.37-4.65-15.07-7.35-30.98-7.35-47.23v-133.82c0-16.24,2.71-32.16,7.35-47.21,9.71-31.45,36.38-45.4,69.17-45.41l117.92-.02c29.61,0,53.25,19.44,60.58,48.14,7.79,30.47,7.7,62.34.19,93.08-6.13,25.1-26.18,44.62-53.05,44.76l-124.38.67,1.9,60.18c.43,13.66,11.43,21.4,25.68,22.91ZM3011.38,261.31c-1.38-10.36-10.05-16.48-20.21-16.5l-63.96-.1c-14.56.54-25.29,10.38-25.58,25.28l-1.26,65.26,90.7-.15c25.77-.04,24.29-43.92,20.3-73.79Z"/>
        <path class="cls-3" d="M1101.37,462.45l38.7,2.27,113.73-.44-.02,49.4-177.63-.27c-17.21-.03-34.19-5.11-47.06-15.41-20.88-16.71-26.78-52.74-26.79-80.99l-.05-123.87c-.01-28.04,5.1-63.48,24.75-81.11,12.47-11.19,29.54-17.18,47.16-17.21l179.63-.29v50.17s-147.66.07-147.66.07c-11.19,0-21.07,7.98-22.31,18.41l-3.34,27.96.06,131.42c0,17.02,7.87,39.13,20.82,39.89Z"/>
        <polygon class="cls-3" points="2167.32 464.36 2167.5 513.64 1912.23 513.66 1912.23 111.31 1989.49 111.22 1989.45 464.38 2167.32 464.36"/>
        <polygon class="cls-3" points="2218.79 513.66 2218.08 464.46 2306.4 464.28 2306.36 244.8 2218.28 244.64 2218.27 194.49 2383.5 194.52 2383.5 464.31 2470.12 464.4 2470.04 513.65 2218.79 513.66"/>
        <path class="cls-3" d="M3213.77,296.98l-.05,216.68-77.16-.03.21-230.32c.02-18.32,4.88-35.76,13.9-50.7,17.43-28.86,56.34-38.09,90.48-38.09l135.86-.02v50.18s-131.56.21-131.56.21c-15.04,1.47-27.89,7.94-29.23,23.52l-2.44,28.57Z"/>
        <path class="cls-3" d="M639.55,216C639.55,96.71,542.84,0,423.55,0H167.23c-9.66,0-17.49,7.83-17.49,17.49v157.76c0,2.96,2.4,5.37,5.37,5.37h26.15c.15,0,.29-.01.43-.02.07,0,.14.02.22.02h26.15c3.58,0,6.49-2.9,6.49-6.49v-29.34c.04-.3.07-.61.07-.92v-72.26c.25-1.04,1.18-1.81,2.29-1.81h190.72c94.15,0,170.47,76.32,170.47,170.47v31.5c0,97.07-78.69,175.76-175.76,175.76H103.54c-3.01,0-5.45,2.44-5.45,5.45v24.51c0,1.07.28,2.08.78,2.96-.49.82-.78,1.77-.78,2.79v24.51c0,3.33,2.7,6.04,6.04,6.04h323.23c117.15,0,212.12-94.97,212.12-212.12v-24.69c.05-1.85.07-3.71.07-5.57v-55.41Z"/>
      </g>
    </g>
  </g>
</svg>