<?xml version="1.0" encoding="UTF-8"?>
<svg id="Layer_2" data-name="Layer 2" xmlns="http://www.w3.org/2000/svg" viewBox="0 0 503.88 443.91">
  <defs>
    <style>
      .cls-1 {
        fill: #0071bb;
      }

      .cls-2 {
        fill: #0095d5;
      }

      .cls-3 {
        fill: #28aae2;
      }

      .cls-4 {
        fill: #0072bc;
      }

      .cls-5 {
        fill: #0083c8;
      }

      .cls-6 {
        fill: #007ead;
      }
    </style>
  </defs>
  <g id="Layer_1-2" data-name="Layer 1">
    <g>
      <path class="cls-6" d="M487.7,376.46s-47.1,54.59-125.2,49.41-98.33-21.65-98.33-21.65l69.92-8s91.49,21.65,153.61-19.76Z"/>
      <path class="cls-1" d="M503.87,286.97s-26.35,118.59-245.65,38.59c0,0-146.82-45.88-227.76-20.94,0,0,24,38.12,47.76,58.59,0,0,67.18-12.24,193.77,46.12l72.16-7.53s154.9-1.88,159.73-114.82Z"/>
      <path class="cls-5" d="M10.36,401.48s75.53-13.76,142.24,14.82c66.71,28.59,127.76,32.47,155.65,22.94,0,0-48-14.47-96.71-37.76s-139.76-44.47-201.18,0Z"/>
      <path class="cls-4" d="M287.65,0H54.12C39.33,0,27.35,11.99,27.35,26.77v179.71h19.29V68.03c0-2.66,1.08-5.08,2.83-6.82,2.36-2.36,5.71-2.71,6.82-2.83,5.37-.56,59.08-.72,132.42-.36,40.9-13.65,81.8-27.29,122.71-40.94-.93-2.27-5.36-12.34-15.83-15.87-2.95-1-5.7-1.24-7.95-1.2ZM65.18,39.08c-5,0-9.06-4.06-9.06-9.06s4.06-9.06,9.06-9.06,9.06,4.06,9.06,9.06-4.06,9.06-9.06,9.06ZM97.01,39.08c-5,0-9.06-4.06-9.06-9.06s4.06-9.06,9.06-9.06,9.06,4.06,9.06,9.06-4.06,9.06-9.06,9.06ZM128.83,39.08c-5,0-9.06-4.06-9.06-9.06s4.06-9.06,9.06-9.06,9.06,4.06,9.06,9.06-4.06,9.06-9.06,9.06Z"/>
      <g>
        <g>
          <path class="cls-3" d="M478.94,159.72v-78.78h0v-8.37c0-3.31-2.19-6.22-5.37-7.13l-145.07-41.6c-2.52-.72-5.03,1.17-5.03,3.79v8.72l.48.14h-.48v99.53h0c0,2.54,1.78,4.74,4.26,5.26l145.18,30.86c3.1.66,6.02-1.71,6.02-4.88v-7.55h0ZM465.2,156.8l-14.46-3.07c-.13-.03-.21-.14-.21-.26v-80.31c0-.18.17-.31.35-.26l14.46,4.15c.12.03.2.14.2.26v79.23c0,.17-.16.3-.33.26ZM394.05,56.6l14.46,4.15c.12.03.2.14.2.26v83.45c0,.17-.16.3-.33.26l-14.46-3.07c-.13-.03-.21-.14-.21-.26V56.86c0-.18.17-.31.35-.26ZM379.96,138.68l-14.46-3.07c-.13-.03-.21-.14-.21-.26V48.71c0-.18.17-.31.35-.26l14.46,4.15c.12.03.2.14.2.26v85.56c0,.17-.16.3-.33.26ZM422.46,64.74l14.46,4.15c.12.03.2.14.2.26v81.34c0,.17-.16.3-.33.26l-14.46-3.07c-.13-.03-.21-.14-.21-.26v-82.42c0-.18.17-.31.35-.26ZM351.88,44.71v87.67c0,.17-.16.3-.33.26l-14.46-3.07c-.13-.03-.21-.14-.21-.26V40.56c0-.18.17-.31.35-.26l14.46,4.15c.12.03.2.14.2.26Z"/>
          <path class="cls-3" d="M479.75,186.38c0-2.2-1.55-4.1-3.7-4.56l-148.28-31.48c-2.22-.47-4.3,1.22-4.3,3.48v105.1c0,1.42.92,2.69,2.28,3.12,86.32,27.66,133.57,24.81,148.75,22.63,3.15-.45,5.47-3.15,5.47-6.32l-.21-91.98ZM353.25,259.02c0,.79-.69,1.4-1.47,1.3l-13.28-1.78c-.65-.09-1.13-.64-1.13-1.3v-89.35c0-.85.8-1.48,1.62-1.27l13.28,3.37c.58.15.98.67.98,1.27v87.77ZM382.05,262.14c0,.76-.69,1.35-1.47,1.25l-13.28-1.71c-.65-.08-1.13-.62-1.13-1.25v-85.88c0-.82.8-1.42,1.62-1.22l13.28,3.24c.58.14.98.64.98,1.22v84.36ZM410.84,265.17c0,.74-.69,1.31-1.47,1.21l-13.28-1.67c-.65-.08-1.13-.6-1.13-1.21v-83.53c0-.8.8-1.38,1.62-1.19l13.28,3.15c.58.14.98.63.98,1.19v82.05ZM439.43,268.28c0,.71-.69,1.25-1.47,1.16l-13.28-1.59c-.65-.08-1.13-.57-1.13-1.16v-79.88c0-.76.8-1.32,1.62-1.14l13.28,3.01c.58.13.98.6.98,1.14v78.47ZM467.61,271.15c0,.68-.69,1.2-1.47,1.11l-13.28-1.53c-.65-.07-1.13-.55-1.13-1.11v-76.69c0-.73.8-1.27,1.62-1.09l13.28,2.89c.58.13.98.57.98,1.09v75.33Z"/>
        </g>
        <g>
          <circle class="cls-3" cx="83.78" cy="104.43" r="9.54"/>
          <circle class="cls-3" cx="83.78" cy="134.4" r="9.54"/>
          <circle class="cls-3" cx="83.78" cy="164.37" r="9.54"/>
          <rect class="cls-3" x="106.7" y="94.9" width="60.24" height="19.07" rx="9.54" ry="9.54"/>
          <rect class="cls-3" x="104.82" y="154.84" width="60.24" height="19.07" rx="9.54" ry="9.54"/>
          <rect class="cls-3" x="104.82" y="124.87" width="60.24" height="19.07" rx="9.54" ry="9.54"/>
        </g>
        <path class="cls-3" d="M193.33,65.97l113.69-37.6c2.8-.93,5.69,1.16,5.69,4.11v105.41c0,2.06-1.45,3.83-3.46,4.24l-113.69,23.39c-2.69.55-5.21-1.5-5.21-4.24v-91.2c0-1.87,1.2-3.53,2.97-4.11Z"/>
        <path class="cls-3" d="M193.51,174.24l114.6-21.82c2.39-.45,4.6,1.38,4.6,3.81v97.89c0,2.59-2.49,4.45-4.98,3.72l-114.6-33.94c-1.65-.49-2.78-2-2.78-3.72v-42.13c0-1.86,1.32-3.46,3.15-3.81Z"/>
      </g>
      <path class="cls-2" d="M290.93,266.52C105.99,201.98,8.83,215.59,0,230.66c0,0,1.65,26.18,30.47,73.94,80.94-24.94,227.76,20.94,227.76,20.94,219.29,80,245.65-38.59,245.65-38.59,0,0-28.01,44.1-212.95-20.44ZM104.82,293.96c-7.46,0-13.5-6.04-13.5-13.5s6.04-13.5,13.5-13.5,13.5,6.04,13.5,13.5-6.04,13.5-13.5,13.5Z"/>
    </g>
  </g>
</svg>